<svg width="32" height="33" viewBox="0 0 32 33" fill="none" xmlns="http://www.w3.org/2000/svg">
<g filter="url(#filter0_d_66_24052)">
<path d="M28 19C28 12.3726 22.6274 7 16 7H4V25H28V19Z" fill="#EBEBEB"/>
<path d="M11 21.6364V10H15.3636C16.2576 10 17.0076 10.1553 17.6136 10.4659C18.2235 10.7765 18.6837 11.2121 18.9943 11.7727C19.3087 12.3295 19.4659 12.9792 19.4659 13.7216C19.4659 14.4678 19.3068 15.1155 18.9886 15.6648C18.6742 16.2102 18.2102 16.6326 17.5966 16.9318C16.983 17.2273 16.2292 17.375 15.3352 17.375H12.2273V15.625H15.0511C15.5739 15.625 16.0019 15.553 16.3352 15.4091C16.6686 15.2614 16.9148 15.0473 17.0739 14.767C17.2367 14.483 17.3182 14.1345 17.3182 13.7216C17.3182 13.3087 17.2367 12.9564 17.0739 12.6648C16.911 12.3693 16.6629 12.1458 16.3295 11.9943C15.9962 11.839 15.5663 11.7614 15.0398 11.7614H13.108V21.6364H11ZM17.0114 16.3636L19.892 21.6364H17.5398L14.7102 16.3636H17.0114Z" fill="#2D2D2D"/>
</g>
<defs>
<filter id="filter0_d_66_24052" x="-4" y="0" width="40" height="40" filterUnits="userSpaceOnUse" color-interpolation-filters="sRGB">
<feFlood flood-opacity="0" result="BackgroundImageFix"/>
<feColorMatrix in="SourceAlpha" type="matrix" values="0 0 0 0 0 0 0 0 0 0 0 0 0 0 0 0 0 0 127 0" result="hardAlpha"/>
<feOffset dy="4"/>
<feGaussianBlur stdDeviation="2"/>
<feComposite in2="hardAlpha" operator="out"/>
<feColorMatrix type="matrix" values="0 0 0 0 0 0 0 0 0 0 0 0 0 0 0 0 0 0 0.25 0"/>
<feBlend mode="normal" in2="BackgroundImageFix" result="effect1_dropShadow_66_24052"/>
<feBlend mode="normal" in="SourceGraphic" in2="effect1_dropShadow_66_24052" result="shape"/>
</filter>
</defs>
</svg>
